<?xml version="1.0" encoding="utf-8"?>
<!-- Generator: Adobe Illustrator 16.0.4, SVG Export Plug-In . SVG Version: 6.00 Build 0)  -->
<!DOCTYPE svg PUBLIC "-//W3C//DTD SVG 1.1//EN" "http://www.w3.org/Graphics/SVG/1.1/DTD/svg11.dtd">
<svg version="1.1" id="Layer_1" xmlns="http://www.w3.org/2000/svg" xmlns:xlink="http://www.w3.org/1999/xlink" x="0px" y="0px"
	 width="40px" height="40px" viewBox="0 0 40 40" enable-background="new 0 0 40 40" xml:space="preserve">
<rect display="none" fill="#494949" width="40" height="40"/>
<g>
	<path fill="#FFFFFF" d="M31.357,26.043h-16.44c-0.028-0.029-0.064-0.057-0.081-0.098c-0.059-0.15-0.027-0.324,0.088-0.439
		l3.615-3.613c0.245-0.244,0.381-0.57,0.381-0.921c0-0.348-0.137-0.676-0.381-0.922c-0.51-0.508-1.334-0.508-1.841,0l-7.347,7.349
		l7.347,7.344c0.507,0.51,1.332,0.51,1.841,0c0.245-0.244,0.381-0.57,0.381-0.918c0-0.35-0.137-0.678-0.381-0.922l-3.615-3.613
		c-0.115-0.115-0.146-0.287-0.088-0.438h16.521c0.951,0,1.722-0.631,1.722-1.404C33.079,26.672,32.309,26.043,31.357,26.043z"/>
	<path fill="#FFFFFF" d="M25.164,11.438c0.059,0.149,0.025,0.323-0.089,0.437l-3.613,3.615c-0.245,0.245-0.383,0.571-0.383,0.92
		c0,0.348,0.138,0.676,0.383,0.922c0.509,0.507,1.333,0.507,1.84,0l7.349-7.347l-7.349-7.344c-0.507-0.51-1.331-0.51-1.84,0
		c-0.245,0.243-0.383,0.571-0.383,0.919c0,0.349,0.138,0.676,0.383,0.922l3.613,3.613c0.114,0.115,0.146,0.287,0.089,0.437H8.643
		c-0.952,0-1.722,0.629-1.722,1.405c0,0.776,0.771,1.404,1.722,1.404h16.44C25.111,11.374,25.146,11.397,25.164,11.438z"/>
</g>
</svg>
