<?xml version="1.0" encoding="utf-8"?>
<!-- Generator: Adobe Illustrator 16.0.4, SVG Export Plug-In . SVG Version: 6.00 Build 0)  -->
<!DOCTYPE svg PUBLIC "-//W3C//DTD SVG 1.1//EN" "http://www.w3.org/Graphics/SVG/1.1/DTD/svg11.dtd">
<svg version="1.1" id="Layer_1" xmlns="http://www.w3.org/2000/svg" xmlns:xlink="http://www.w3.org/1999/xlink" x="0px" y="0px"
	 width="40px" height="40px" viewBox="0 0 40 40" enable-background="new 0 0 40 40" xml:space="preserve">
<rect display="none" fill="#494949" width="40" height="40"/>
<g>
	<path fill="#FFFFFF" d="M31.414,4.456c-2.699-2.592-6.437-4.019-10.52-4.019c-6.239,0-10.077,2.557-12.196,4.703
		c-2.614,2.643-4.111,6.153-4.111,9.63c0,4.365,1.825,7.716,4.883,8.962c0.207,0.086,0.413,0.127,0.615,0.127
		c0.646,0,1.155-0.422,1.333-1.098c0.102-0.39,0.342-1.348,0.446-1.764c0.223-0.823,0.042-1.217-0.441-1.79
		c-0.885-1.045-1.296-2.283-1.296-3.893c0-4.783,3.562-9.868,10.163-9.868c5.238,0,8.493,2.977,8.493,7.77
		c0,3.024-0.651,5.825-1.834,7.886c-0.823,1.435-2.269,3.142-4.488,3.142c-0.958,0-1.822-0.395-2.367-1.083
		c-0.513-0.649-0.683-1.489-0.476-2.363c0.233-0.989,0.552-2.021,0.859-3.017c0.563-1.82,1.094-3.539,1.094-4.911
		c0-2.346-1.442-3.924-3.589-3.924c-2.728,0-4.866,2.772-4.866,6.309c0,1.735,0.461,3.033,0.671,3.53
		c-0.345,1.457-2.386,10.112-2.774,11.746c-0.225,0.953-1.573,8.479,0.659,9.079c2.51,0.675,4.753-6.656,4.982-7.484
		c0.185-0.672,0.834-3.22,1.229-4.787c1.212,1.168,3.164,1.957,5.06,1.957c3.579,0,6.797-1.61,9.062-4.534
		c2.196-2.835,3.405-6.789,3.405-11.129C35.41,10.24,33.954,6.895,31.414,4.456L31.414,4.456z M31.414,4.456"/>
</g>
</svg>
