<?xml version="1.0" encoding="utf-8"?>
<!-- Generator: Adobe Illustrator 16.0.4, SVG Export Plug-In . SVG Version: 6.00 Build 0)  -->
<!DOCTYPE svg PUBLIC "-//W3C//DTD SVG 1.1//EN" "http://www.w3.org/Graphics/SVG/1.1/DTD/svg11.dtd">
<svg version="1.1" id="Layer_1" xmlns="http://www.w3.org/2000/svg" xmlns:xlink="http://www.w3.org/1999/xlink" x="0px" y="0px"
	 width="40px" height="40px" viewBox="0 0 40 40" enable-background="new 0 0 40 40" xml:space="preserve">
<rect x="0" y="0" display="none" fill="#494949" width="40" height="40"/>
<g>
	<path fill="#FFFFFF" d="M12.418,32.037c0,2.68-2.179,4.855-4.863,4.855c-2.682,0-4.857-2.176-4.857-4.855
		c0-2.684,2.175-4.865,4.857-4.865C10.239,27.172,12.418,29.354,12.418,32.037z"/>
	<path fill="#FFFFFF" d="M37.618,37.481h-6.325c0-15.79-12.847-28.636-28.639-28.636V2.519
		C21.933,2.519,37.618,18.204,37.618,37.481z"/>
	<path fill="#FFFFFF" d="M25.437,37.481h-6.326c0-9.224-7.504-16.729-16.729-16.729v-6.326
		C15.094,14.427,25.437,24.77,25.437,37.481z"/>
</g>
</svg>
