<?xml version="1.0" encoding="utf-8"?>
<!-- Generator: Adobe Illustrator 16.0.4, SVG Export Plug-In . SVG Version: 6.00 Build 0)  -->
<!DOCTYPE svg PUBLIC "-//W3C//DTD SVG 1.1//EN" "http://www.w3.org/Graphics/SVG/1.1/DTD/svg11.dtd">
<svg version="1.1" id="Layer_1" xmlns="http://www.w3.org/2000/svg" xmlns:xlink="http://www.w3.org/1999/xlink" x="0px" y="0px"
	 width="40px" height="40px" viewBox="0 0 40 40" enable-background="new 0 0 40 40" xml:space="preserve">
<rect display="none" fill="#494949" width="40" height="40"/>
<path fill="#FFFFFF" d="M38.029,9.051c-6.612,0-8.943,1.692-9.096,1.765c-0.217,0.103-0.379,0.292-0.449,0.523
	c-0.062,0.206-0.027,0.42,0.066,0.61c-1.277-0.482-3.05-1.181-4.84-1.983c-3.027-1.354-4.989-0.928-7.151,0.771H9.802
	c0.036-0.269,0.067-0.529,0.088-0.771C9.912,9.71,9.819,9.46,9.63,9.281C8.186,7.915,3.754,7.473,2.02,7.368
	c-0.234-0.007-0.458,0.071-0.628,0.23C1.224,7.757,1.128,7.979,1.128,8.209V23.37c0,0.465,0.377,0.842,0.842,0.842h3.713
	c0.366,0,0.688-0.235,0.8-0.58c0.017-0.055,0.09-0.276,0.196-0.614c0.194,0.198,0.402,0.416,0.626,0.647
	c0.748,0.783,1.524,1.592,2.048,2.033c3.134,2.625,6.905,5.457,7.656,5.953c0.619,0.41,1.957,0.98,2.989,0.98
	c0.826,0,1.468-0.191,1.912-0.566c0.594,0.234,1.264,0.234,1.913-0.02c0.768-0.299,1.394-0.896,1.752-1.621
	c0.666,0.143,1.428,0.045,2.116-0.301c0.676-0.341,1.164-0.861,1.406-1.472c0.668,0.033,1.361-0.201,1.934-0.688
	c0.767-0.658,1.068-1.604,0.893-2.543l1.35-0.908c0.093,0.299,0.172,0.565,0.228,0.766c0.104,0.363,0.437,0.613,0.812,0.613h3.717
	c0.467,0,0.843-0.375,0.843-0.84V9.894C38.872,9.428,38.496,9.051,38.029,9.051z M5.068,22.524H2.812V9.112
	c2.707,0.216,4.289,0.68,5.35,1.195C7.715,13.994,5.697,20.55,5.068,22.524z M29.938,26.683c-0.328,0.281-0.778,0.371-1.029,0.203
	c-0.65-0.529-3.286-3.228-4.932-4.943c-0.322-0.334-0.854-0.346-1.188-0.027c-0.337,0.324-0.349,0.857-0.024,1.193
	c0.389,0.406,3.521,3.67,4.786,4.826c-0.094,0.365-0.438,0.594-0.608,0.684c-0.539,0.27-1.104,0.225-1.312,0.029
	c-0.007-0.008-0.018-0.008-0.023-0.014c-0.012-0.008-0.016-0.021-0.025-0.027c-1.007-0.809-3.54-3.504-4.115-4.125
	c-0.312-0.342-0.846-0.363-1.189-0.049c-0.341,0.312-0.365,0.848-0.05,1.189c0.028,0.03,2.5,2.696,3.897,3.942
	c-0.158,0.401-0.489,0.75-0.898,0.912c-0.26,0.096-0.635,0.151-0.967-0.152c-0.005-0.006-0.013-0.008-0.017-0.01
	c-0.005-0.004-0.005-0.009-0.011-0.015c-1.201-1.012-3.656-3.627-4.138-4.141c-0.316-0.338-0.851-0.359-1.191-0.041
	c-0.34,0.318-0.358,0.854-0.04,1.193c0.569,0.609,2.264,2.404,3.539,3.604c-0.109,0.016-0.23,0.029-0.397,0.029
	c-0.56,0-1.569-0.379-2.064-0.705c-0.591-0.385-4.3-3.154-7.5-5.834c-0.45-0.377-1.23-1.189-1.915-1.908
	c-0.506-0.529-0.969-1.008-1.278-1.297c0.705-2.324,1.718-5.881,2.278-8.782h5.169c-1.15,1.157-2.7,3.475-2.296,5.179
	c0.174,0.725,0.689,1.265,1.448,1.515c1.91,0.627,3.65,0.025,4.947-1.694c0.534-0.083,0.827-0.204,1.263-0.401
	c0.16-0.071,0.343-0.155,0.59-0.254c0.965,0.903,2.264,1.958,3.633,3.063c2.478,2.005,5.283,4.277,5.912,5.591
	C30.501,26.065,30.165,26.489,29.938,26.683z M31.195,23.886c-1.159-1.555-3.536-3.482-5.863-5.368
	c-1.527-1.236-2.973-2.404-3.896-3.325c-0.229-0.234-0.576-0.305-0.879-0.198c-0.569,0.207-0.918,0.366-1.196,0.486
	c-0.421,0.191-0.562,0.254-1.128,0.311c-0.251,0.027-0.477,0.162-0.62,0.37c-1.188,1.78-2.419,1.626-3.245,1.354
	c-0.263-0.089-0.311-0.201-0.336-0.311c-0.174-0.737,0.711-2.461,1.861-3.609c2.736-2.738,4.149-3.424,7.132-2.091
	c2.843,1.274,5.666,2.304,6.521,2.608c0.99,2.406,2.324,6.137,3.188,8.734L31.195,23.886z M37.188,24.212h-2.244
	c-0.795-2.6-3.153-9.382-4.469-12.186c1.287-0.437,2.707-1.185,6.713-1.28V24.212z"/>
</svg>
