<?xml version="1.0" encoding="utf-8"?>
<!-- Generator: Adobe Illustrator 16.0.4, SVG Export Plug-In . SVG Version: 6.00 Build 0)  -->
<!DOCTYPE svg PUBLIC "-//W3C//DTD SVG 1.1//EN" "http://www.w3.org/Graphics/SVG/1.1/DTD/svg11.dtd">
<svg version="1.1" id="Layer_1" xmlns="http://www.w3.org/2000/svg" xmlns:xlink="http://www.w3.org/1999/xlink" x="0px" y="0px"
	 width="40px" height="40px" viewBox="0 0 40 40" enable-background="new 0 0 40 40" xml:space="preserve">
<rect display="none" fill="#494949" width="40" height="40"/>
<g>
	<path fill="#FFFFFF" d="M18.001,19.745H16.96v-1.037c0-0.524-0.422-0.944-0.942-0.944c-0.519,0-0.944,0.42-0.944,0.944v1.037H14.04
		c-0.521,0-0.942,0.426-0.942,0.943c0,0.521,0.421,0.939,0.942,0.939h1.034v1.037c0,0.521,0.426,0.943,0.944,0.943
		c0.521,0,0.942-0.424,0.942-0.943v-1.037h1.041c0.52,0,0.939-0.42,0.939-0.939C18.94,20.17,18.521,19.745,18.001,19.745z
		 M25.963,19.745H22c-0.52,0-0.941,0.426-0.941,0.943c0,0.521,0.424,0.939,0.941,0.939h3.963c0.521,0,0.941-0.42,0.941-0.939
		C26.904,20.17,26.482,19.745,25.963,19.745z M17.349,27.305l0.734-0.732c0.367-0.365,0.367-0.967,0.004-1.33
		c-0.37-0.371-0.966-0.371-1.333,0l-0.736,0.73l-0.731-0.73c-0.371-0.371-0.965-0.371-1.338,0c-0.367,0.363-0.367,0.961,0,1.33
		l0.736,0.732l-0.736,0.736c-0.367,0.369-0.367,0.963,0,1.33c0.373,0.369,0.967,0.369,1.338,0l0.731-0.734l0.736,0.734
		c0.367,0.369,0.963,0.369,1.333,0c0.366-0.367,0.366-0.961,0-1.33L17.349,27.305z M25.963,24.879H22
		c-0.52,0-0.941,0.42-0.941,0.939c0,0.521,0.424,0.945,0.941,0.945h3.963c0.521,0,0.941-0.426,0.941-0.945
		S26.482,24.879,25.963,24.879z M25.963,27.539H22c-0.52,0-0.941,0.426-0.941,0.943c0,0.521,0.424,0.939,0.941,0.939h3.963
		c0.521,0,0.941-0.42,0.941-0.939C26.904,27.965,26.482,27.539,25.963,27.539z"/>
	<path fill="none" stroke="#FFFFFF" stroke-width="1.9062" stroke-miterlimit="10" d="M31.613,31.002c0,1.77-1.437,3.203-3.2,3.203
		H11.588c-1.769,0-3.202-1.434-3.202-3.203V6.761c0-1.77,1.434-3.204,3.202-3.204h16.825c1.767,0,3.2,1.436,3.2,3.204V31.002z"/>
	<path fill="#FFFFFF" d="M27.087,12.542c0,1.062-0.838,1.923-1.866,1.923H14.78c-1.029,0-1.866-0.86-1.866-1.923v-3.02
		c0-1.062,0.837-1.923,1.866-1.923h10.441c1.028,0,1.866,0.86,1.866,1.923V12.542z"/>
</g>
</svg>
