<?xml version="1.0" encoding="utf-8"?>
<!-- Generator: Adobe Illustrator 16.0.4, SVG Export Plug-In . SVG Version: 6.00 Build 0)  -->
<!DOCTYPE svg PUBLIC "-//W3C//DTD SVG 1.1//EN" "http://www.w3.org/Graphics/SVG/1.1/DTD/svg11.dtd">
<svg version="1.1" id="Layer_1" xmlns="http://www.w3.org/2000/svg" xmlns:xlink="http://www.w3.org/1999/xlink" x="0px" y="0px"
	 width="40px" height="40px" viewBox="0 0 40 40" enable-background="new 0 0 40 40" xml:space="preserve">
<rect display="none" fill="#494949" width="40" height="40"/>
<path fill="#FFFFFF" d="M31.889,13.921c-1.076,0-2.098,0.229-3.021,0.636l-2.83-4.23c-0.04-0.059-0.104-0.089-0.153-0.138
	l0.413-1.161h0.881c0.578,0,1.049-0.468,1.049-1.047c0-0.578-0.471-1.047-1.049-1.047h-3.812c-0.578,0-1.05,0.469-1.05,1.047
	c0,0.579,0.472,1.047,1.05,1.047h0.708l-0.299,0.835H12.418l1.147-3.986h3.541c0.578,0,1.048-0.469,1.048-1.047
	c0-0.579-0.47-1.048-1.048-1.048h-4.329c-0.467,0-0.877,0.309-1.007,0.758l-2.717,9.446c-0.309-0.038-0.62-0.064-0.939-0.064
	c-4.165,0-7.554,3.386-7.554,7.553c0,4.162,3.389,7.551,7.554,7.551c4.164,0,7.551-3.389,7.551-7.551
	c0-3.114-1.894-5.791-4.588-6.946l0.522-1.816l7.947,8.805c0.198,0.219,0.48,0.346,0.777,0.346h4.032
	c0.205,3.982,3.5,7.162,7.533,7.162c4.163,0,7.551-3.389,7.551-7.551C39.439,17.306,36.053,13.921,31.889,13.921z M13.569,21.473
	c0,3.008-2.447,5.455-5.456,5.455c-3.01,0-5.458-2.447-5.458-5.455c0-3.01,2.448-5.459,5.458-5.459c0.119,0,0.229,0.027,0.346,0.035
	L7.041,20.98c-0.16,0.555,0.161,1.135,0.718,1.295c0.096,0.027,0.194,0.041,0.289,0.041c0.455,0,0.875-0.299,1.007-0.758
	l1.432-4.979C12.304,17.466,13.569,19.316,13.569,21.473z M27.078,15.654c-1.253,1.037-2.161,2.475-2.541,4.109h-2.059l2.549-7.174
	L27.078,15.654z M29.83,19.763h-3.098c0.301-0.911,0.83-1.713,1.529-2.34L29.83,19.763z M13.74,11.956h9.289l-2.623,7.386
	L13.74,11.956z M31.889,26.928c-2.877,0-5.215-2.244-5.418-5.068h5.32c0.387,0,0.742-0.213,0.924-0.555
	c0.182-0.34,0.16-0.754-0.053-1.076l-2.596-3.879c0.572-0.204,1.18-0.336,1.822-0.336c3.01,0,5.453,2.449,5.453,5.459
	C37.344,24.48,34.898,26.928,31.889,26.928z"/>
</svg>
