<?xml version="1.0" encoding="utf-8"?>
<!-- Generator: Adobe Illustrator 16.0.4, SVG Export Plug-In . SVG Version: 6.00 Build 0)  -->
<!DOCTYPE svg PUBLIC "-//W3C//DTD SVG 1.1//EN" "http://www.w3.org/Graphics/SVG/1.1/DTD/svg11.dtd">
<svg version="1.1" id="Layer_1" xmlns="http://www.w3.org/2000/svg" xmlns:xlink="http://www.w3.org/1999/xlink" x="0px" y="0px"
	 width="40px" height="40px" viewBox="0 0 40 40" enable-background="new 0 0 40 40" xml:space="preserve">
<rect display="none" fill="#494949" width="40" height="40"/>
<g>
	<path fill="#FFFFFF" d="M20.011,20.145h-0.068c-1.424,0-2.787-0.565-3.811-1.595c-1.022-1.025-1.585-2.389-1.583-3.839
		c0.006-2.99,2.44-5.42,5.428-5.42h0.072c2.969,0.029,5.375,2.45,5.378,5.42c0.003,1.451-0.559,2.813-1.581,3.839
		C22.82,19.58,21.46,20.145,20.011,20.145z M19.989,17.791c0.821,0,1.608-0.32,2.188-0.901c0.578-0.581,0.896-1.354,0.896-2.174
		c-0.003-1.678-1.353-3.043-3.02-3.07H19.92c-1.667,0.034-3.012,1.397-3.016,3.07c-0.001,0.82,0.317,1.593,0.896,2.174
		C18.38,17.47,19.168,17.791,19.989,17.791z"/>
	<path fill="#FFFFFF" d="M20,34.807l-0.94-1.094c-0.315-0.367-7.74-9.018-9.272-11.467c-1.736-2.775-2.082-4.942-2.077-7.532
		c0-6.773,5.513-12.287,12.29-12.287c6.776,0,12.29,5.513,12.29,12.289c0.005,2.588-0.341,4.754-2.076,7.53
		c-1.533,2.449-8.958,11.1-9.273,11.467L20,34.807z M20,4.908c-5.41,0-9.811,4.4-9.811,9.81c-0.005,2.608,0.425,4.175,1.699,6.215
		c1.127,1.803,6.03,7.615,8.112,10.062c2.082-2.447,6.984-8.262,8.111-10.062c1.275-2.042,1.703-3.606,1.699-6.212
		C29.812,9.308,25.41,4.908,20,4.908z"/>
</g>
</svg>
