<?xml version="1.0" encoding="utf-8"?>
<!-- Generator: Adobe Illustrator 16.0.4, SVG Export Plug-In . SVG Version: 6.00 Build 0)  -->
<!DOCTYPE svg PUBLIC "-//W3C//DTD SVG 1.1//EN" "http://www.w3.org/Graphics/SVG/1.1/DTD/svg11.dtd">
<svg version="1.1" id="Layer_1" xmlns="http://www.w3.org/2000/svg" xmlns:xlink="http://www.w3.org/1999/xlink" x="0px" y="0px"
	 width="40px" height="40px" viewBox="0 0 40 40" enable-background="new 0 0 40 40" xml:space="preserve">
<g>
	<g>
		<g>
			<path fill="#FFFFFF" d="M35.559,33.434c0,2.967-2.342,5.361-5.228,5.361H9.669c-2.887,0-5.228-2.395-5.228-5.361v-10.34
				c0-2.961,2.341-5.36,5.228-5.36h20.662c2.886,0,5.228,2.399,5.228,5.36V33.434z"/>
		</g>
		<g>
			<polygon fill-rule="evenodd" clip-rule="evenodd" fill="#231F20" points="8.704,35.055 8.704,22.941 6.351,22.941 6.351,20.546 
				13.097,20.546 13.097,22.941 10.745,22.941 10.745,35.055 			"/>
			<path fill-rule="evenodd" clip-rule="evenodd" fill="#231F20" d="M19.481,24.157v10.897h-1.876v-1.086
				c-0.393,0.92-0.97,1.375-1.728,1.375c-1.225,0-1.837-0.877-1.837-2.623v-8.563h1.844v7.116c0,0.584,0.032,1.01,0.1,1.26
				c0.113,0.434,0.353,0.645,0.704,0.645c0.386,0,0.638-0.234,0.765-0.705c0.074-0.271,0.106-0.717,0.106-1.359v-6.956H19.481z"/>
			<path fill-rule="evenodd" clip-rule="evenodd" fill="#231F20" d="M23.969,25.986c-0.52,0-0.837,0.555-0.957,1.67
				c-0.027,0.23-0.041,1.031-0.041,2.404c0,1.061,0.019,1.73,0.065,1.99c0.122,0.809,0.436,1.213,0.933,1.213
				c0.467,0,0.744-0.496,0.844-1.486c0.027-0.211,0.039-0.918,0.039-2.139c0-1.264-0.012-1.982-0.032-2.158
				C24.721,26.486,24.44,25.986,23.969,25.986z M21.123,35.055V20.546h1.908v4.534c0.316-0.811,0.858-1.209,1.617-1.209
				c0.97,0,1.6,0.7,1.9,2.108c0.152,0.71,0.228,1.935,0.228,3.681c0,1.688-0.083,2.908-0.249,3.631
				c-0.311,1.373-0.95,2.053-1.92,2.053c-0.807,0-1.362-0.477-1.675-1.426v1.137H21.123z"/>
			<path fill-rule="evenodd" clip-rule="evenodd" fill="#231F20" d="M29.926,28.223h1.848v-0.455c0-0.635-0.047-1.074-0.126-1.34
				c-0.133-0.418-0.405-0.629-0.806-0.629c-0.338,0-0.576,0.145-0.726,0.432c-0.164,0.365-0.236,0.875-0.21,1.537l0.013,0.146
				C29.926,28.018,29.926,28.127,29.926,28.223z M31.833,31.316h1.795l0.007,0.217l0.007,0.209c0,1.248-0.226,2.166-0.679,2.734
				c-0.457,0.584-1.165,0.867-2.121,0.867c-0.996,0-1.706-0.344-2.145-1.041c-0.347-0.555-0.566-1.365-0.659-2.42
				c-0.047-0.471-0.066-1.346-0.066-2.627c0-1.041,0.02-1.775,0.066-2.215c0.086-0.889,0.271-1.568,0.557-2.039
				c0.481-0.751,1.246-1.131,2.295-1.131c1.018,0,1.754,0.405,2.227,1.227c0.381,0.669,0.572,2.014,0.572,4.031v0.824h-3.743
				c-0.013,0.117-0.026,0.352-0.026,0.697c0,0.811,0.04,1.393,0.101,1.734c0.14,0.715,0.427,1.062,0.858,1.062
				C31.515,33.447,31.833,32.744,31.833,31.316z"/>
		</g>
	</g>
	<g>
		<polygon fill-rule="evenodd" clip-rule="evenodd" fill="#FFFFFF" points="11.668,15.536 11.668,9.458 8.814,1.206 11.058,1.206 
			12.703,6.593 14.328,1.206 16.514,1.206 13.714,9.458 13.714,15.536 		"/>
		<path fill-rule="evenodd" clip-rule="evenodd" fill="#FFFFFF" d="M18.361,10.298c0,1.331,0.012,2.056,0.022,2.178
			c0.1,0.959,0.4,1.438,0.899,1.438s0.805-0.414,0.92-1.236c0.023-0.18,0.036-0.849,0.036-2.019V9.61
			c0-1.093-0.019-1.746-0.049-1.969c-0.113-0.817-0.414-1.227-0.89-1.227c-0.475,0-0.765,0.36-0.878,1.078
			c-0.039,0.233-0.062,0.836-0.062,1.812V10.298z M16.424,10.159c0-1.854,0.14-3.166,0.417-3.943c0.41-1.153,1.229-1.729,2.46-1.729
			c1.221,0,2.04,0.576,2.461,1.729c0.275,0.767,0.416,2.083,0.416,3.943s-0.141,3.172-0.416,3.938
			c-0.421,1.147-1.24,1.724-2.461,1.724c-1.23,0-2.05-0.576-2.46-1.729C16.563,13.324,16.424,12.015,16.424,10.159z"/>
		<path fill-rule="evenodd" clip-rule="evenodd" fill="#FFFFFF" d="M29.753,4.771v10.765h-1.855v-1.071
			c-0.396,0.907-0.966,1.356-1.719,1.356c-1.219,0-1.826-0.865-1.826-2.594V4.771h1.826v7.033c0,0.579,0.032,0.989,0.102,1.237
			c0.117,0.426,0.349,0.642,0.706,0.642c0.379,0,0.628-0.232,0.757-0.698c0.071-0.264,0.105-0.714,0.105-1.338V4.771H29.753z"/>
	</g>
</g>
</svg>
