<?xml version="1.0" encoding="utf-8"?>
<!-- Generator: Adobe Illustrator 16.0.4, SVG Export Plug-In . SVG Version: 6.00 Build 0)  -->
<!DOCTYPE svg PUBLIC "-//W3C//DTD SVG 1.1//EN" "http://www.w3.org/Graphics/SVG/1.1/DTD/svg11.dtd">
<svg version="1.1" id="Layer_1" xmlns="http://www.w3.org/2000/svg" xmlns:xlink="http://www.w3.org/1999/xlink" x="0px" y="0px"
	 width="40px" height="40px" viewBox="0 0 40 40" enable-background="new 0 0 40 40" xml:space="preserve">
<path fill-rule="evenodd" clip-rule="evenodd" fill="#FFFFFF" d="M35.004,12.318l0.021,0.99c0,10.236-7.795,22.015-22.016,22.015
	c-4.36,0-8.432-1.276-11.867-3.479c0.616,0.069,1.233,0.112,1.849,0.112c3.632,0,6.957-1.235,9.622-3.303
	C9.223,28.589,6.36,26.34,5.37,23.281c0.484,0.088,0.969,0.131,1.454,0.131c0.725,0,1.408-0.088,2.046-0.265
	c-3.544-0.725-6.208-3.83-6.208-7.595v-0.088c1.057,0.573,2.246,0.924,3.5,0.968c-2.069-1.387-3.434-3.764-3.434-6.45
	c0-1.409,0.374-2.73,1.056-3.875c3.809,4.667,9.512,7.75,15.94,8.08c-0.131-0.572-0.2-1.167-0.2-1.761
	c0-4.271,3.457-7.75,7.729-7.75c2.223,0,4.227,0.947,5.635,2.443c1.764-0.33,3.436-0.99,4.932-1.872
	c-0.594,1.806-1.805,3.325-3.412,4.272c1.564-0.177,3.059-0.595,4.449-1.212C37.82,9.874,36.5,11.217,35.004,12.318z"/>
</svg>
