<?xml version="1.0" encoding="utf-8"?>
<!-- Generator: Adobe Illustrator 16.0.4, SVG Export Plug-In . SVG Version: 6.00 Build 0)  -->
<!DOCTYPE svg PUBLIC "-//W3C//DTD SVG 1.1//EN" "http://www.w3.org/Graphics/SVG/1.1/DTD/svg11.dtd">
<svg version="1.1" id="Layer_1" xmlns="http://www.w3.org/2000/svg" xmlns:xlink="http://www.w3.org/1999/xlink" x="0px" y="0px"
	 width="40px" height="40px" viewBox="0 0 40 40" enable-background="new 0 0 40 40" xml:space="preserve">
<rect display="none" fill="#494949" width="40" height="40"/>
<g>
	<path fill="#FFFFFF" stroke="#FFFFFF" stroke-width="0.7396" d="M29.398,2.937c-1.098,0-2.033,0.685-2.806,1.826l-8.823,6.229H10.6
		c-2.962,0-5.37,2.408-5.37,5.37c0,2.601,1.856,4.771,4.314,5.266l2.398,2.396v5c0,1.125,0.559,2.168,1.495,2.791l2.831,1.893
		c0.116,0.076,0.246,0.107,0.373,0.107c0.173,0,0.347-0.061,0.477-0.193l0.556-0.557c0.633-0.635,0.984-1.475,0.984-2.375v-0.461
		c0-0.895-0.351-1.738-0.985-2.375c-0.19-0.186-0.271-0.453-0.22-0.713l0.989-4.934l8.154,5.756
		c0.771,1.141,1.707,1.824,2.803,1.824c3.49,0,5.371-6.916,5.371-13.429C34.77,9.854,32.889,2.937,29.398,2.937z M6.572,16.36
		c0-2.22,1.808-4.027,4.029-4.027h4.131c-0.909,0.945-1.444,2.333-1.444,4.027c0,1.692,0.535,3.083,1.443,4.029h-4.13
		C8.38,20.391,6.572,18.582,6.572,16.36z M17.313,30.689c0,0.537-0.208,1.045-0.587,1.426l-0.167,0.168l-2.375-1.584
		c-0.563-0.375-0.895-1.002-0.895-1.676v-5.277c0-0.178-0.072-0.348-0.198-0.477l-1.539-1.539h5.615l-1.027,5.146
		c-0.141,0.703,0.078,1.42,0.586,1.93c0.379,0.381,0.587,0.885,0.587,1.422V30.689z M18.373,20.514
		c-0.013-0.008-0.029-0.006-0.042-0.012c-0.105-0.068-0.219-0.111-0.345-0.111c-2.477,0-3.356-2.167-3.356-4.029
		c0-1.857,0.879-4.027,3.356-4.027c0.13,0,0.244-0.045,0.349-0.109c0.011-0.009,0.025-0.006,0.038-0.013l7.016-4.953
		c-0.429,1.216-0.756,2.617-0.984,4.102c-0.006,0.036-0.014,0.07-0.02,0.108c-0.107,0.733-0.191,1.485-0.251,2.247
		c-0.004,0.058-0.01,0.109-0.015,0.167c-0.061,0.824-0.092,1.655-0.092,2.479c0,0.824,0.031,1.654,0.092,2.479
		c0.005,0.057,0.011,0.112,0.015,0.17c0.062,0.76,0.142,1.511,0.251,2.246c0.006,0.041,0.016,0.078,0.021,0.119
		c0.229,1.479,0.557,2.875,0.984,4.092L18.373,20.514z M29.398,28.445c-0.574,0-1.168-0.455-1.717-1.281
		c-0.008-0.01-0.002-0.021-0.01-0.029c-1.055-1.6-1.812-4.299-2.133-7.426c-0.007-0.06-0.014-0.116-0.018-0.174
		c-0.041-0.429-0.072-0.866-0.099-1.31c-0.004-0.104-0.011-0.206-0.019-0.312c-0.022-0.511-0.037-1.029-0.037-1.553
		c0-0.522,0.015-1.04,0.037-1.551c0.008-0.106,0.015-0.209,0.019-0.312c0.024-0.442,0.058-0.879,0.099-1.309
		c0.004-0.058,0.011-0.115,0.018-0.171c0.318-3.127,1.078-5.827,2.133-7.428c0.008-0.009,0.002-0.019,0.01-0.028
		c0.549-0.824,1.143-1.283,1.717-1.283c1.906,0,4.031,4.962,4.031,12.083C33.43,23.48,31.305,28.445,29.398,28.445z"/>
	<path fill="#FFFFFF" stroke="#FFFFFF" stroke-width="0.7396" d="M28.363,12.333c-0.369,0-0.672,0.301-0.672,0.673
		c0,0.371,0.303,0.671,0.672,0.671c1.111,0,2.016,1.204,2.016,2.684c0,1.481-0.904,2.688-2.016,2.688
		c-0.369,0-0.672,0.303-0.672,0.672c0,0.372,0.303,0.672,0.672,0.672c1.851,0,3.357-1.811,3.357-4.03
		C31.723,14.142,30.214,12.333,28.363,12.333z"/>
</g>
</svg>
